<?xml version="1.0" encoding="utf-8"?>
<!-- Generator: Adobe Illustrator 21.1.0, SVG Export Plug-In . SVG Version: 6.00 Build 0)  -->
<svg version="1.1" id="Layer_1" xmlns="http://www.w3.org/2000/svg" xmlns:xlink="http://www.w3.org/1999/xlink" x="0px" y="0px"
	 viewBox="0 0 778 140" style="enable-background:new 0 0 778 140;" xml:space="preserve">
<style type="text/css">
	.st0{fill:#FFFFFF;}
	.st1{opacity:0.5;fill:#FFFFFF;}
</style>
<path class="st0" d="M99,65.3L88.9,42.5l-9.4,22.8H99z M85.8,28.7h6.3L120.4,92h-9.2l-8.4-18.6H75.9L68,92h-9.3L85.8,28.7z"/>
<path class="st0" d="M125.3,50.6h8.2V92h-8.2V50.6z M129.3,33.1c1.3,0,2.5,0.5,3.5,1.4c1,0.9,1.4,2.1,1.4,3.4c0,1.3-0.5,2.5-1.4,3.4
	c-1,1-2.1,1.4-3.5,1.4c-1.3,0-2.4-0.5-3.3-1.5c-1-1-1.4-2.1-1.4-3.4c0-1.3,0.5-2.4,1.4-3.4C127,33.6,128.1,33.1,129.3,33.1"/>
<rect x="143.3" y="29.1" class="st0" width="8.2" height="62.9"/>
<path class="st0" d="M167.3,67.1h20.8c-0.2-3.3-1.2-5.8-2.9-7.6c-1.7-1.8-4.1-2.7-7-2.7c-2.9,0-5.4,0.9-7.2,2.7
	C169.1,61.3,167.9,63.8,167.3,67.1 M196.3,72h-29.1c0.2,4,1.5,7.1,4,9.5c2.4,2.3,5.6,3.5,9.5,3.5c5.4,0,10.4-1.7,14.9-5v8
	c-2.5,1.7-5,2.9-7.5,3.6c-2.5,0.7-5.4,1.1-8.7,1.1c-4.6,0-8.3-0.9-11.1-2.8c-2.8-1.9-5.1-4.4-6.8-7.6c-1.7-3.2-2.5-6.9-2.5-11.1
	c0-6.3,1.8-11.4,5.4-15.4c3.6-3.9,8.2-5.9,13.9-5.9c5.5,0,9.9,1.9,13.1,5.8c3.3,3.8,4.9,9,4.9,15.4V72z"/>
<path class="st0" d="M211.9,50.6v9.5l0.5-0.7c4-6.4,7.9-9.6,11.9-9.6c3.1,0,6.3,1.6,9.7,4.7l-4.3,7.2c-2.9-2.7-5.5-4.1-7.9-4.1
	c-2.6,0-4.9,1.3-6.9,3.8c-1.9,2.5-2.9,5.5-2.9,9V92h-8.2V50.6H211.9z"/>
<path class="st0" d="M257,57.9c-3.9,0-7.2,1.3-9.7,3.9c-2.5,2.6-3.8,5.9-3.8,9.9c0,4,1.3,7.2,3.9,9.7c2.6,2.5,5.9,3.8,10,3.8
	c4,0,7.3-1.3,9.9-3.8c2.6-2.5,3.9-5.8,3.9-9.7c0-3.9-1.3-7.2-4-9.8C264.4,59.2,261.1,57.9,257,57.9 M257.5,50.5
	c6.3,0,11.5,2,15.7,6.1c4.2,4.1,6.3,9.2,6.3,15.3c0,6-2.1,10.9-6.4,14.9c-4.2,3.9-9.6,5.9-16,5.9c-6.2,0-11.4-2-15.6-6
	c-4.2-4-6.3-9-6.3-15c0-6.1,2.1-11.1,6.3-15.2C245.8,52.5,251.1,50.5,257.5,50.5"/>
<path class="st0" d="M295.2,50.6v5.3c3.7-4.1,7.8-6.1,12.5-6.1c2.6,0,5,0.7,7.2,2c2.2,1.3,3.9,3.2,5.1,5.5c1.2,2.3,1.7,6,1.7,11.1
	V92h-8.2V68.4c0-4.2-0.6-7.3-1.9-9.1c-1.3-1.8-3.5-2.7-6.5-2.7c-3.9,0-7.2,1.9-9.9,5.8V92h-8.4V50.6H295.2z"/>
<path class="st0" d="M468.5,65.3l-10.2-22.8l-9.4,22.8H468.5z M455.3,28.7h6.3L489.8,92h-9.2l-8.4-18.6h-26.8L437.5,92h-9.3
	L455.3,28.7z"/>
<path class="st0" d="M494.7,50.6h8.2V92h-8.2V50.6z M498.8,33.1c1.3,0,2.5,0.5,3.5,1.4c1,0.9,1.4,2.1,1.4,3.4c0,1.3-0.5,2.5-1.4,3.4
	c-1,1-2.1,1.4-3.5,1.4c-1.3,0-2.4-0.5-3.3-1.5c-1-1-1.4-2.1-1.4-3.4c0-1.3,0.5-2.4,1.4-3.4C496.4,33.6,497.5,33.1,498.8,33.1"/>
<path class="st0" d="M521,50.6v9.5l0.5-0.7c4-6.4,7.9-9.6,11.9-9.6c3.1,0,6.3,1.6,9.7,4.7l-4.3,7.2c-2.9-2.7-5.5-4.1-7.9-4.1
	c-2.6,0-4.9,1.3-6.9,3.8c-1.9,2.5-2.9,5.5-2.9,9V92h-8.2V50.6H521z"/>
<polygon class="st0" points="604.1,50.6 612.9,50.6 594.6,92.7 592,92.7 579.8,63.8 567.7,92.7 565,92.7 546.6,50.6 555.4,50.6 
	566.2,75.7 576.8,50.6 582.9,50.6 593.3,75.7 "/>
<path class="st0" d="M636.4,83.8V71.5l-5.5,2.1c-2.8,1.1-4.8,2.2-5.9,3.4c-1.2,1.1-1.7,2.5-1.7,4.2c0,1.7,0.5,3.1,1.6,4.2
	c1.1,1.1,2.5,1.6,4.3,1.6C631.7,87,634.1,85.9,636.4,83.8 M644.4,67.1v17.6c0,1.4,0.5,2.1,1.4,2.1c1,0,2.5-0.7,4.6-2.2v5
	c-1.9,1.2-3.4,2-4.5,2.5c-1.1,0.4-2.3,0.7-3.5,0.7c-3.5,0-5.6-1.4-6.2-4.1c-3.5,2.7-7.2,4.1-11.1,4.1c-2.9,0-5.3-1-7.2-2.9
	c-1.9-1.9-2.9-4.3-2.9-7.2c0-2.6,0.9-4.9,2.8-7c1.9-2.1,4.5-3.7,8-4.9l10.5-3.6v-2.2c0-5-2.5-7.5-7.5-7.5c-4.5,0-8.8,2.3-13.1,6.9
	v-9c3.2-3.8,7.8-5.6,13.7-5.6c4.5,0,8.1,1.2,10.8,3.5c0.9,0.8,1.7,1.7,2.4,3c0.7,1.2,1.2,2.5,1.4,3.7
	C644.3,61.2,644.4,63.6,644.4,67.1"/>
<polygon class="st0" points="679.3,50.6 688.5,50.6 659.1,113.1 650,113.1 664,83.1 648,50.6 657.4,50.6 668.6,74 "/>
<path class="st0" d="M690.9,89v-8.8c2.3,1.6,4.7,2.9,7.1,3.9c2.4,1,4.5,1.5,6.1,1.5c1.7,0,3.2-0.4,4.4-1.3c1.2-0.8,1.8-1.8,1.8-3
	c0-1.2-0.4-2.2-1.2-3c-0.8-0.8-2.5-1.9-5.2-3.4c-5.3-2.9-8.7-5.5-10.4-7.5c-1.6-2.1-2.5-4.4-2.5-6.8c0-3.2,1.2-5.8,3.7-7.8
	c2.5-2,5.7-3,9.6-3c4.1,0,8.2,1.1,12.5,3.4v8.1c-4.9-2.9-8.8-4.4-11.9-4.4c-1.6,0-2.9,0.3-3.9,1c-1,0.7-1.5,1.6-1.5,2.7
	c0,1,0.4,1.9,1.3,2.8c0.9,0.9,2.4,1.9,4.7,3.1l2.9,1.7c6.9,3.9,10.4,8.2,10.4,13c0,3.4-1.3,6.2-4,8.4c-2.7,2.2-6.1,3.3-10.2,3.3
	c-2.5,0-4.7-0.3-6.6-0.8C696.3,91.4,693.9,90.4,690.9,89"/>
<path class="st0" d="M404.3,28.7c-7.4,0-14.5,2.9-19.7,8.1L329.1,92h19.8l34.6-34.3l11-10.9c2.6-2.6,6.1-4.1,9.9-4.1h15l-6,14
	l-6.4,15.1l-2.7,6.3l-6,14h15.2l27-63.3H404.3z"/>
<path class="st1" d="M348.9,92l44.4,18.9c3.5,1.5,7.2,2.2,10.9,2.2h15.1L398.2,92H348.9z"/>
</svg>
