<?xml version="1.0" encoding="utf-8"?>
<!-- Generator: Adobe Illustrator 21.1.0, SVG Export Plug-In . SVG Version: 6.00 Build 0)  -->
<svg version="1.1" id="Layer_1" xmlns="http://www.w3.org/2000/svg" xmlns:xlink="http://www.w3.org/1999/xlink" x="0px" y="0px"
	 viewBox="0 0 188 64" style="enable-background:new 0 0 188 64;" xml:space="preserve">
<style type="text/css">
	.st0{fill:#FFFFFF;}
	.st1{opacity:0.5;fill:#FFFFFF;}
</style>
<path class="st0" d="M20.9,30.5l-2.6-5.7L16,30.5H20.9z M17.6,21.3h1.6l7.1,15.9H24l-2.1-4.7h-6.8l-2,4.7h-2.3L17.6,21.3z"/>
<path class="st0" d="M27.5,26.8h2.1v10.4h-2.1V26.8z M28.6,22.4c0.3,0,0.6,0.1,0.9,0.4c0.2,0.2,0.4,0.5,0.4,0.9
	c0,0.3-0.1,0.6-0.4,0.9c-0.2,0.2-0.5,0.4-0.9,0.4c-0.3,0-0.6-0.1-0.8-0.4c-0.2-0.2-0.4-0.5-0.4-0.9c0-0.3,0.1-0.6,0.4-0.8
	C28,22.5,28.2,22.4,28.6,22.4"/>
<rect x="32.1" y="21.4" class="st0" width="2.1" height="15.8"/>
<path class="st0" d="M38.1,31h5.2c-0.1-0.8-0.3-1.5-0.7-1.9c-0.4-0.4-1-0.7-1.8-0.7c-0.7,0-1.3,0.2-1.8,0.7
	C38.6,29.5,38.3,30.1,38.1,31 M45.4,32.2h-7.3c0.1,1,0.4,1.8,1,2.4c0.6,0.6,1.4,0.9,2.4,0.9c1.4,0,2.6-0.4,3.8-1.3v2
	c-0.6,0.4-1.3,0.7-1.9,0.9c-0.6,0.2-1.4,0.3-2.2,0.3c-1.1,0-2.1-0.2-2.8-0.7c-0.7-0.5-1.3-1.1-1.7-1.9C36.2,33.9,36,33,36,32
	c0-1.6,0.4-2.9,1.3-3.9c0.9-1,2.1-1.5,3.5-1.5c1.4,0,2.5,0.5,3.3,1.5c0.8,1,1.2,2.3,1.2,3.9V32.2z"/>
<path class="st0" d="M49.3,26.8v2.4l0.1-0.2c1-1.6,2-2.4,3-2.4c0.8,0,1.6,0.4,2.4,1.2l-1.1,1.8c-0.7-0.7-1.4-1-2-1
	c-0.7,0-1.2,0.3-1.7,1c-0.5,0.6-0.7,1.4-0.7,2.3v5.5h-2.1V26.8H49.3z"/>
<path class="st0" d="M60.7,28.6c-1,0-1.8,0.3-2.4,1c-0.6,0.7-1,1.5-1,2.5c0,1,0.3,1.8,1,2.4c0.7,0.6,1.5,0.9,2.5,0.9
	c1,0,1.8-0.3,2.5-1c0.6-0.6,1-1.5,1-2.5c0-1-0.3-1.8-1-2.5C62.6,29,61.7,28.6,60.7,28.6 M60.8,26.8c1.6,0,2.9,0.5,4,1.5
	c1.1,1,1.6,2.3,1.6,3.9c0,1.5-0.5,2.8-1.6,3.7c-1.1,1-2.4,1.5-4,1.5c-1.6,0-2.9-0.5-3.9-1.5c-1.1-1-1.6-2.3-1.6-3.8
	c0-1.5,0.5-2.8,1.6-3.8C57.9,27.3,59.2,26.8,60.8,26.8"/>
<path class="st0" d="M70.3,26.8v1.3c0.9-1,2-1.5,3.1-1.5c0.7,0,1.3,0.2,1.8,0.5c0.6,0.3,1,0.8,1.3,1.4c0.3,0.6,0.4,1.5,0.4,2.8v6
	h-2.1v-5.9c0-1.1-0.2-1.8-0.5-2.3c-0.3-0.5-0.9-0.7-1.6-0.7c-1,0-1.8,0.5-2.5,1.5v7.4h-2.1V26.8H70.3z"/>
<path class="st0" d="M113.9,30.5l-2.6-5.7l-2.4,5.7H113.9z M110.6,21.3h1.6l7.1,15.9H117l-2.1-4.7h-6.8l-2,4.7h-2.3L110.6,21.3z"/>
<path class="st0" d="M120.5,26.8h2.1v10.4h-2.1V26.8z M121.6,22.4c0.3,0,0.6,0.1,0.9,0.4c0.2,0.2,0.4,0.5,0.4,0.9
	c0,0.3-0.1,0.6-0.4,0.9c-0.2,0.2-0.5,0.4-0.9,0.4c-0.3,0-0.6-0.1-0.8-0.4c-0.2-0.2-0.4-0.5-0.4-0.9c0-0.3,0.1-0.6,0.4-0.8
	C121,22.5,121.2,22.4,121.6,22.4"/>
<path class="st0" d="M127.2,26.8v2.4l0.1-0.2c1-1.6,2-2.4,3-2.4c0.8,0,1.6,0.4,2.4,1.2l-1.1,1.8c-0.7-0.7-1.4-1-2-1
	c-0.7,0-1.2,0.3-1.7,1c-0.5,0.6-0.7,1.4-0.7,2.3v5.5h-2.1V26.8H127.2z"/>
<polygon class="st0" points="148.1,26.8 150.3,26.8 145.7,37.4 145,37.4 141.9,30.1 138.9,37.4 138.2,37.4 133.6,26.8 135.8,26.8 
	138.5,33.1 141.2,26.8 142.7,26.8 145.4,33.1 "/>
<path class="st0" d="M156.2,35.2v-3.1l-1.4,0.5c-0.7,0.3-1.2,0.6-1.5,0.8c-0.3,0.3-0.4,0.6-0.4,1.1c0,0.4,0.1,0.8,0.4,1.1
	c0.3,0.3,0.6,0.4,1.1,0.4C155,36,155.6,35.7,156.2,35.2 M158.2,31v4.4c0,0.4,0.1,0.5,0.4,0.5c0.2,0,0.6-0.2,1.2-0.6v1.3
	c-0.5,0.3-0.8,0.5-1.1,0.6c-0.3,0.1-0.6,0.2-0.9,0.2c-0.9,0-1.4-0.3-1.6-1c-0.9,0.7-1.8,1-2.8,1c-0.7,0-1.3-0.2-1.8-0.7
	c-0.5-0.5-0.7-1.1-0.7-1.8c0-0.7,0.2-1.2,0.7-1.8c0.5-0.5,1.1-0.9,2-1.2l2.6-0.9v-0.6c0-1.3-0.6-1.9-1.9-1.9c-1.1,0-2.2,0.6-3.3,1.7
	V28c0.8-0.9,2-1.4,3.5-1.4c1.1,0,2,0.3,2.7,0.9c0.2,0.2,0.4,0.4,0.6,0.8c0.2,0.3,0.3,0.6,0.3,0.9C158.2,29.5,158.2,30.1,158.2,31"/>
<polygon class="st0" points="167,26.8 169.3,26.8 161.9,42.5 159.6,42.5 163.1,35 159.1,26.8 161.5,26.8 164.3,32.7 "/>
<path class="st0" d="M169.9,36.5v-2.2c0.6,0.4,1.2,0.7,1.8,1c0.6,0.3,1.1,0.4,1.5,0.4c0.4,0,0.8-0.1,1.1-0.3
	c0.3-0.2,0.5-0.5,0.5-0.8c0-0.3-0.1-0.6-0.3-0.8c-0.2-0.2-0.6-0.5-1.3-0.9c-1.3-0.7-2.2-1.4-2.6-1.9c-0.4-0.5-0.6-1.1-0.6-1.7
	c0-0.8,0.3-1.5,0.9-2c0.6-0.5,1.4-0.8,2.4-0.8c1,0,2.1,0.3,3.1,0.9v2c-1.2-0.7-2.2-1.1-3-1.1c-0.4,0-0.7,0.1-1,0.3
	c-0.2,0.2-0.4,0.4-0.4,0.7c0,0.2,0.1,0.5,0.3,0.7c0.2,0.2,0.6,0.5,1.2,0.8l0.7,0.4c1.7,1,2.6,2.1,2.6,3.3c0,0.9-0.3,1.6-1,2.1
	c-0.7,0.5-1.5,0.8-2.6,0.8c-0.6,0-1.2-0.1-1.7-0.2C171.3,37.1,170.7,36.8,169.9,36.5"/>
<path class="st0" d="M97.8,21.3c-1.9,0-3.6,0.7-5,2l-14,13.9h5l8.7-8.6l2.8-2.7c0.7-0.7,1.5-1,2.5-1h3.8l-1.5,3.5l-1.6,3.8l-0.7,1.6
	l-1.5,3.5h3.8l6.8-15.9H97.8z"/>
<path class="st1" d="M83.8,37.2L95,42c0.9,0.4,1.8,0.6,2.8,0.6h3.8l-5.3-5.3H83.8z"/>
</svg>
