<?xml version="1.0" encoding="utf-8"?>
<!-- Generator: Adobe Illustrator 19.1.0, SVG Export Plug-In . SVG Version: 6.00 Build 0)  -->
<svg version="1.1" id="Layer_1" xmlns="http://www.w3.org/2000/svg" xmlns:xlink="http://www.w3.org/1999/xlink" x="0px" y="0px"
	 viewBox="0 0 300 300" style="enable-background:new 0 0 300 300;" xml:space="preserve">
<style type="text/css">
	.st0{fill:#FFFFFF;}
</style>
<path class="st0" d="M256.1,43.9C228.9,16.8,191.4,0,150,0C108.6,0,71.1,16.8,43.9,43.9C16.8,71.1,0,108.6,0,150
	c0,41.4,16.8,78.9,43.9,106.1C71.1,283.2,108.6,300,150,300c41.4,0,78.9-16.8,106.1-43.9C283.2,228.9,300,191.4,300,150
	C300,108.6,283.2,71.1,256.1,43.9z M145.4,246.2L26.5,158.1l64.4-47.7l54.5,40.4V246.2z M145.4,138.4L86,94.4l59.4-44V138.4z
	 M155.3,50.4l59.4,44l-59.4,44V50.4z M155.3,246.2v-95.4l54.5-40.4l64.4,47.7L155.3,246.2z"/>
</svg>
