<?xml version="1.0" encoding="utf-8"?>
<!-- Generator: Adobe Illustrator 21.1.0, SVG Export Plug-In . SVG Version: 6.00 Build 0)  -->
<svg version="1.1" id="Layer_1" xmlns="http://www.w3.org/2000/svg" xmlns:xlink="http://www.w3.org/1999/xlink" x="0px" y="0px"
	 viewBox="0 0 188 64" style="enable-background:new 0 0 188 64;" xml:space="preserve">
<style type="text/css">
	.st0{fill:#FFFFFF;}
	.st1{opacity:0.4;fill:#FFFFFF;}
	.st2{opacity:0.7;fill:#FFFFFF;}
</style>
<path class="st0" d="M22.9,14.3c-7.4,1.2-12.8,7.5-13,15l6-0.9c0.2-1.5,0.7-2.9,1.6-4.2C18.7,20.6,20.5,17.2,22.9,14.3"/>
<path class="st1" d="M30.5,21.3c2.4-0.7,4.8-1.2,7.3-1.3c-3.1-4-7.9-6.2-12.9-5.9c-2.1,2.2-3.9,4.8-5,7.7
	C23,19.5,27.2,19.3,30.5,21.3"/>
<path class="st2" d="M34.6,33.2c1.8,0.9,3.5,1.9,5.1,3c2.2-4.8,1.8-10.4-1-14.9c-2.3,0.1-4.6,0.5-6.8,1.1c0.2,0.1,0.3,0.3,0.5,0.4
	C35.1,25.4,36,29.5,34.6,33.2"/>
<path class="st0" d="M34,34.4c-1.5,2.6-4.1,4.5-7.1,4.9l-0.8,6c5.4-0.2,10.3-3.2,12.9-7.9C37.5,36.2,35.8,35.2,34,34.4"/>
<path class="st0" d="M25.5,23.6c3.1,0,5.6,2.5,5.6,5.6s-2.5,5.6-5.6,5.6c-3.1,0-5.6-2.5-5.6-5.6S22.5,23.6,25.5,23.6"/>
<path class="st0" d="M55.6,44h-5.7V22.6h5.7V44L55.6,44z M49.5,17c0-0.8,0.3-1.6,0.9-2.1c1.4-1.1,3.3-1.1,4.7,0
	c1.2,1.2,1.2,3.1,0,4.3c-1.4,1.1-3.3,1.1-4.7,0C49.8,18.6,49.5,17.8,49.5,17"/>
<path class="st0" d="M63.1,33.5c-0.1,1.6,0.3,3.2,1.1,4.6c0.7,1,1.8,1.7,3.1,1.6c1.6,0.1,3.1-0.8,3.7-2.3V29
	c-0.6-1.5-2.1-2.4-3.7-2.3C64.5,26.8,63.2,29,63.1,33.5L63.1,33.5z M57.4,33.1c0-3.3,0.8-6,2.3-8c1.4-2,3.7-3.1,6.2-3
	c2,0,3.9,0.8,5.2,2.3v-11h5.8V44h-5.2l-0.3-2.3c-1.3,1.7-3.3,2.7-5.5,2.7c-2.4,0.1-4.7-1.1-6.1-3C58.2,39.4,57.4,36.7,57.4,33.1"/>
<path class="st0" d="M88.4,26.8c-1,0-2.1,0.4-2.8,1.2c-0.8,0.9-1.2,2.1-1.3,3.3h8v-0.5c0-1.1-0.3-2.1-1-3
	C90.5,27.1,89.4,26.7,88.4,26.8L88.4,26.8z M89,44.4c-2.8,0.1-5.6-0.9-7.7-2.9c-2-1.9-3-4.5-3-7.7v-0.6c0-2,0.4-4,1.2-5.8
	c0.8-1.6,2-3,3.5-3.9c1.6-0.9,3.4-1.4,5.2-1.3c2.9,0,5.2,0.9,6.9,2.8c1.7,1.9,2.5,4.5,2.5,7.9v2.3H84.2c0.1,1.3,0.7,2.5,1.7,3.4
	c1,0.9,2.2,1.3,3.5,1.3c2,0.1,3.9-0.8,5.2-2.4l2.8,3.2c-0.9,1.2-2.1,2.2-3.5,2.8C92.4,44.1,90.7,44.4,89,44.4"/>
<path class="st0" d="M106.8,40c0.8,0,1.6-0.2,2.3-0.6c0.7-0.3,1.2-0.9,1.6-1.5v-3.7h-2.1c-2.9,0-4.4,1-4.6,3v0.3
	c0,0.7,0.3,1.3,0.8,1.8C105.3,39.8,106,40.1,106.8,40L106.8,40z M111.5,44c-0.3-0.6-0.5-1.3-0.6-1.9c-1.4,1.5-3.3,2.4-5.4,2.3
	c-1.9,0.1-3.8-0.6-5.2-1.8c-1.4-1.1-2.1-2.8-2.1-4.6c-0.1-2.1,0.8-4,2.5-5.2c1.7-1.2,4.1-1.8,7.3-1.8h2.6v-1.2
	c0-0.9-0.2-1.7-0.8-2.4c-0.6-0.6-1.5-1-2.4-0.9c-0.8-0.1-1.6,0.2-2.3,0.7c-0.6,0.5-0.9,1.2-0.8,1.9h-5.7c0-1.2,0.4-2.5,1.2-3.5
	c0.8-1.1,2-2,3.3-2.5c1.5-0.6,3.1-0.9,4.7-0.9c2.6,0,4.7,0.7,6.3,2c1.6,1.4,2.4,3.5,2.3,5.6v9.3c-0.1,1.6,0.2,3.2,0.9,4.6V44H111.5
	L111.5,44z"/>
<path class="st0" d="M123.7,33.5c-0.1,1.6,0.3,3.2,1.2,4.6c0.7,1.1,1.9,1.7,3.2,1.7c1.5,0.1,3-0.7,3.7-2v-9.1
	c-0.8-1.3-2.2-2.1-3.7-2c-1.3,0-2.5,0.6-3.2,1.7C124.1,29.6,123.7,31.3,123.7,33.5L123.7,33.5z M118,33.1c0-3.3,0.8-5.9,2.4-8
	c1.5-2,3.9-3.1,6.3-3c2.1-0.1,4.1,0.8,5.5,2.4l0.2-2h5.2v20.8c0,1.7-0.4,3.4-1.3,4.9c-0.9,1.4-2.1,2.5-3.6,3.2
	c-1.7,0.8-3.6,1.1-5.4,1.1c-1.6,0-3.1-0.3-4.6-0.9c-1.3-0.5-2.5-1.3-3.4-2.4l2.5-3.5c1.3,1.5,3.2,2.4,5.2,2.4
	c1.3,0.1,2.6-0.4,3.6-1.2c0.9-0.9,1.3-2.2,1.3-3.5v-1.2c-1.3,1.5-3.2,2.3-5.2,2.2c-2.5,0.1-4.8-1.1-6.3-3c-1.6-2-2.4-4.7-2.4-8
	L118,33.1L118,33.1z"/>
<path class="st0" d="M149.2,26.8c-1,0-2.1,0.4-2.8,1.2c-0.8,0.9-1.2,2.1-1.3,3.3h8v-0.5c0-1.1-0.3-2.1-1-3
	C151.3,27.1,150.3,26.7,149.2,26.8 M149.9,44.4c-2.8,0.1-5.6-0.9-7.7-2.9c-2-1.9-3-4.5-3-7.7v-0.6c0-2,0.4-4,1.2-5.8
	c0.8-1.6,2-3,3.5-3.9c1.6-0.9,3.4-1.4,5.2-1.3c2.9,0,5.2,0.9,6.9,2.8c1.7,1.9,2.5,4.5,2.5,7.9v2.3H145c0.1,1.3,0.7,2.5,1.7,3.4
	c1,0.9,2.2,1.3,3.5,1.3c2,0.1,3.9-0.8,5.2-2.4l2.8,3.2c-0.9,1.2-2.1,2.2-3.5,2.8C153.2,44.1,151.6,44.4,149.9,44.4"/>
<path class="st0" d="M165.2,22.6l0.2,2.5c1.5-1.9,3.8-3,6.2-2.9c2.3,0,4,0.7,5.1,2c1.1,1.3,1.7,3.3,1.7,6V44h-5.7V30.3
	c0.1-1-0.2-1.9-0.8-2.7c-0.7-0.6-1.7-0.9-2.6-0.8c-1.5-0.1-2.9,0.7-3.6,2.1V44h-5.7V22.6H165.2L165.2,22.6z"/>
</svg>
